<svg width="211" height="100" viewBox="0 0 211 100" fill="none" xmlns="http://www.w3.org/2000/svg">
<path fill-rule="evenodd" clip-rule="evenodd" d="M54.7409 82.5097C54.7409 82.5097 55.1822 84.5101 56.2709 83.7562C57.3596 83.0036 57.8009 81.8741 58.8896 81.8741C59.9783 81.8741 64.5165 80.9954 65.6052 81.8741C66.6938 82.7527 66.8029 81.9989 67.3472 81.9989C67.8915 81.9989 69.4906 82.2913 69.4906 82.2913C70.8824 82.1418 70.5987 79.8633 69.5928 79.1965C68.1408 78.0253 66.186 77.2727 64.7343 76.1003C64.5888 74.9708 64.4439 73.8412 64.2988 72.7117C64.6979 72.1268 65.097 71.5406 65.4965 70.9544C65.4965 69.0725 65.4965 67.1899 65.4965 65.3072C65.2786 64.8051 65.0608 64.3031 64.8431 63.801C64.7704 62.3789 64.6979 60.9566 64.6253 59.534C64.4439 59.2829 64.2623 59.0319 64.0809 58.7809C64.0809 58.2373 64.0809 57.6933 64.0809 57.1492C64.4439 56.6056 65.1791 56.0618 65.5423 55.5178C65.6511 54.4719 65.1644 53.7337 65.2734 52.6878C65.0192 51.3492 64.9883 49.7028 64.7343 48.3641C64.7343 46.7324 64.7343 45.1008 64.7343 43.4694C65.7874 43.146 66.0426 42.6653 66.1178 42.1789C66.2145 41.5529 65.9168 40.8161 65.6052 39.3275C65.46 31.5045 65.3894 23.3735 65.2443 15.5503C65.8235 14.6153 66.5178 14.1316 66.5324 13.439C66.5438 12.8997 65.9815 12.4501 65.2787 11.8419C65.2787 11.2981 65.2787 10.7545 65.2787 10.2103C65.2787 10.2103 66.4764 7.70008 67.456 7.70008C68.436 7.70008 69.0893 6.94722 69.0893 6.19424C69.9833 4.36476 68.1094 4.18605 68.1094 4.18605C66.0355 4.14173 63.6865 4.25105 61.6635 4.20712C59.879 4.16799 58.4142 3.97443 56.6777 3.93504C55.9155 3.97715 55.1533 4.01861 54.3912 4.06047C52.5181 4.64629 52.9118 5.69383 53.6291 6.27901C54.5 6.84364 55.2432 7.4904 56.242 7.51198C57.4609 7.5381 58.4312 7.9495 58.855 9.20615C58.9641 14.2264 59.0727 19.2468 59.1815 24.2669C59.218 27.9694 59.3288 31.6722 59.3648 35.3741C59.4011 39.0762 59.3635 42.7789 59.3994 46.4813C59.4719 50.8324 59.5445 55.1832 59.6172 59.534C59.6172 59.534 59.3994 61.1656 59.0727 61.5422C58.7462 61.9186 58.855 65.1816 58.855 65.1816C60.0608 66.2635 59.8045 66.1121 58.9641 67.5664C58.8911 70.788 58.8186 74.0089 58.7462 77.2299C58.4558 77.8161 58.1654 78.4023 57.875 78.9872C57.875 78.9872 54.7409 80.8784 54.7409 82.5097V82.5097ZM2.01485 98.1113C0.400422 97.7694 0.0977156 96.9648 0.671156 96.4904C1.01528 96.2058 1.93519 96.2161 2.34875 96.0173C2.95394 95.7235 3.57212 95.3388 3.93648 94.8748C4.55919 94.0806 4.18145 92.2427 4.92456 90.7453C5.63865 84.4282 5.85257 76.0587 5.13886 73.2433C4.71039 68.9043 5.15023 54.4914 5.15023 52.6646C5.62439 51.7871 5.80234 51.7153 5.806 50.1776C5.80726 49.5766 6.19991 48.6412 5.78165 47.8978C5.17497 47.1845 5.35833 44.3955 5.31088 42.8234C5.2407 40.4832 5.40744 40.5024 6.03975 38.3822C6.27778 37.5846 6.35842 36.6357 6.03975 35.8707C5.52456 34.6347 4.77968 36.0628 4.82927 33.5804C4.95081 27.5565 5.16892 21.496 5.01507 15.4745C5.04839 14.9379 5.91605 14.8399 6.08593 14.3328C6.30187 13.6879 6.37343 12.8904 6.08593 12.2779C5.92312 11.9307 5.01189 12.3823 4.74458 12.1192C3.11094 10.5116 1.05812 9.50174 0.111484 7.3568C-0.255442 6.52492 0.336342 4.68401 1.1142 4.28613C2.40286 3.62674 4.79987 4.30836 6.20987 4.05789C6.96813 3.92336 7.44797 3.45869 8.21608 3.42385C14.2071 3.15206 20.372 2.53527 26.3415 3.14436C27.297 3.24184 27.612 4.97801 28.483 5.40903C29.6769 5.99992 31.4228 5.87331 32.3379 6.88171C33.8048 8.49737 34.8573 9.82839 35.0434 12.0681C35.2719 14.8167 35.7305 17.9298 35.708 20.0411C35.6891 21.8091 35.1732 23.4049 34.4079 24.9255C33.3596 27.0096 32.1117 28.9546 30.7604 31.0133C29.9815 32.1998 28.5951 33.3014 28.2688 34.6545C27.9317 36.0532 31.4405 35.0263 32.1584 36.251C32.8484 37.4284 31.5698 38.8079 31.9555 40.1346C32.2999 41.3178 34.2893 41.4331 34.5255 42.6461C35.1348 45.7768 33.7903 49.0874 34.3114 52.2359C34.478 53.2441 36.0311 53.28 36.1821 54.2911C36.3653 56.4758 36.2998 58.7884 36.3164 61.1095C36.3337 63.58 36.4267 66.0616 36.396 68.4101C36.3371 69.2954 35.2116 69.8132 35.1112 70.6931C34.8431 73.0367 35.625 75.6831 35.1225 77.9812C34.5931 80.4014 32.7038 82.1106 31.9667 84.4685C31.3284 86.5105 31.5095 89.4923 30.4792 90.7726C28.7754 91.3237 26.6546 92.5585 25.3125 93.5879C23.3514 95.0905 22.0976 96.8127 21.4947 96.8673C20.7286 97.5692 19.108 97.1 18.1581 97.4653C17.2823 97.8006 17.1997 98.5571 16.2761 98.4336C15.5468 98.3374 15.7741 97.7135 15.2053 97.2183C14.8741 96.9285 14.2372 96.9103 13.9203 97.2183C11.9979 98.8119 13.4318 98.3946 11.2489 98.1867C9.0314 97.9761 4.71517 98.6806 2.01574 98.1113H2.01485ZM14.4375 88.9463C14.9373 87.9572 15.4371 86.968 15.937 85.9775C15.7939 82.7059 15.6513 79.433 15.5084 76.1601C15.937 75.5505 16.3652 74.9422 16.7935 74.3326C16.7935 71.0363 16.7935 67.74 16.7935 64.4433C16.7935 62.9446 16.5906 61.446 16.5906 59.948C15.0872 58.6673 15.8061 58.6859 17.0188 57.2081C17.0188 55.7622 17.3575 54.5956 17.3575 53.1493C17.2144 51.9318 17.0717 50.7139 16.9289 49.4961C17.1433 48.8874 17.3575 48.2784 17.5715 47.6695C17.5715 45.8382 17.7743 44.3563 17.7743 42.5247C17.7743 40.8051 17.8227 40.229 18.128 40.3367C18.4333 40.4443 18.9959 41.2366 20.0231 42.2537C20.8036 43.0267 21.5846 43.8001 22.3653 44.5728C23.8075 46.0001 25.2118 46.13 24.6273 48.4687C24.0811 50.6567 25.651 51.2637 25.1631 53.4349C24.7904 55.0933 24.3004 56.1073 24.409 57.1355C24.4737 57.7522 24.7544 58.3742 25.4039 59.1434C26.0042 59.8541 26.2043 59.8098 25.8455 60.6846C25.289 62.0402 24.8147 62.8307 24.7591 63.6445C24.6874 64.6902 25.2406 65.1709 25.7257 67.0181C26.1228 68.5292 26.0856 69.5311 25.7182 71.0466C25.2831 72.8443 24.8481 74.6419 24.4129 76.4395C24.3639 77.7991 24.2437 79.1601 24.1499 80.521C24.008 82.5942 23.7397 82.6474 22.3399 84.1292C21.0682 85.4758 19.4316 86.6275 18.2047 87.8311C16.8485 88.364 15.7934 88.4134 14.437 88.9463H14.4375ZM17.7141 31.2546C18.8007 31.2874 19.2866 31.3982 19.6234 31.2553C19.9604 31.1121 20.1486 30.715 20.64 29.7333C21.2747 28.4639 22.2148 26.8776 22.9946 26.7583C24.3081 26.5574 24.9935 26.3561 24.9935 26.3561C24.9935 26.3561 25.6809 26.222 25.4458 24.4772C25.2104 22.7325 24.7257 21.0547 25.1529 20.5851C25.5797 20.1155 25.6699 18.7734 25.2155 18.2365C24.7615 17.6999 24.3296 17.1628 25.0634 16.4248C25.797 15.6866 26.3029 14.4509 24.5497 14.6524C22.7967 14.8537 22.8184 14.0723 22.6158 13.5352C22.413 12.9985 20.5008 13.121 19.501 13.0619C18.5022 13.2632 17.6623 13.1961 17.6911 14.2696C17.7202 15.3431 17.5522 20.5181 17.5666 21.055C17.581 21.5918 17.7141 31.2546 17.7141 31.2546V31.2546ZM73.1673 78.3607C73.0892 78.8169 72.0723 78.8195 72.1504 79.2771C72.2597 79.9153 72.3004 80.9122 72.9248 80.9954C74.7358 81.2371 77.2186 80.4949 79.0144 80.8368C79.7236 80.972 79.7623 82.2172 80.4125 82.5383C80.9466 82.5292 81.7689 82.5487 82.4464 82.5383C82.9679 82.2588 82.8277 81.2735 83.3361 80.9681C83.9623 80.5911 84.8163 80.4482 85.497 80.7056C85.8633 80.8446 85.3633 81.8364 85.7512 81.8845C88.9192 81.761 91.7494 82.1184 94.7469 81.8845C95.3455 81.7831 94.7355 80.9005 95.226 80.534C95.7835 80.1167 97.1657 80.8446 97.2597 80.1414C97.7465 76.5059 96.9866 72.4465 97.3182 68.7934C97.4243 67.6238 98.5139 66.9305 98.7576 65.7826C98.8386 65.4003 99.2836 65.3935 99.3189 65.0169C99.4424 63.706 99.4198 62.1159 99.0977 60.8249C98.6706 60.3739 97.3651 60.2099 96.9369 60.4152C96.4544 60.7813 96.8931 62.0803 96.5691 62.5991C96.4088 62.8561 95.8382 62.3416 95.6793 62.5991C95.5232 62.8523 95.725 63.2677 95.7966 63.5961C95.8395 63.7929 95.8356 63.959 95.6793 64.0391C94.8457 64.4683 93.6183 63.4499 92.8829 64.0391C92.1611 64.6173 92.9715 65.736 92.3609 66.437C91.3711 67.5732 89.25 68.2388 88.2641 69.3786C87.0917 70.7334 87.1964 72.1164 85.8492 73.2862C84.7946 74.2013 83.0027 74.2975 81.7248 74.8317C80.2435 75.4517 79.5362 76.5943 77.9976 77.0401C77.5326 77.1753 76.9654 76.3382 77.1078 75.8625C78.2606 72.0137 79.7587 68.1443 81.0033 64.3257C81.8016 61.876 82.1764 60.3305 83.0389 57.9034C83.9316 55.3918 85.0975 52.2873 86.555 50.0735C86.842 49.6372 87.7997 49.922 87.9533 49.4189C88.3343 48.1702 87.6212 46.7551 87.9533 45.4916C88.1987 44.5566 89.1546 43.6592 89.9458 43.1352C90.4802 42.7814 91.3332 43.2744 91.5691 42.6669C92.12 41.2485 91.6053 39.7461 91.9523 38.2608C92.1861 37.2602 92.8534 36.647 93.2782 35.715C93.8416 34.478 93.8005 33.4042 94.4222 32.197C94.9283 31.2149 95.9931 29.8402 96.2998 28.7737C96.7209 27.3092 96.3757 26.5905 96.5128 25.0694C96.5495 24.66 97.1321 24.4333 97.1484 24.0222C97.3457 19.0959 97.5989 14.1522 97.3182 9.22968C97.2954 8.82856 96.4205 8.84587 96.4284 8.44423C96.4588 6.93996 96.636 5.61089 96.5555 4.25519C96.5401 3.99029 96.6289 3.77334 96.3718 3.76229C92.3916 3.59033 88.463 3.68368 84.4801 3.73151C81.2177 3.77037 77.9472 3.50105 74.6926 3.73151C74.2002 3.76634 73.7588 3.85354 73.4215 4.22437C73.0979 4.58013 72.9372 5.33936 72.956 5.82601C73.0417 8.01372 72.9134 10.3955 72.956 13.026C72.9636 13.5135 73.8961 13.2218 74.0571 13.6806C74.5052 14.9586 74.5396 16.3844 74.4385 17.7388C74.4062 18.1739 73.8925 18.7599 73.9025 19.1956C74.1067 20.71 74.2971 21.7802 74.5656 23.2369C74.7199 23.8003 75.1905 24.2403 75.3282 24.8079C75.4926 25.4864 74.8918 26.857 75.5688 26.9024C75.7937 26.9172 76.5783 27.0523 76.9806 26.9024C77.4978 26.7094 76.7904 25.7328 76.9806 25.2006C77.1153 24.8232 77.8085 24.8119 77.8703 24.4152C78.2064 22.2596 77.6224 19.7337 77.9545 17.577C78.0557 16.9199 78.4215 16.2257 78.9714 15.8754C79.4392 15.5771 80.2857 16.3229 80.6238 15.8754C81.0924 15.2545 80.6314 14.5392 80.921 13.8115C81.3359 12.7703 82.0107 11.8101 82.8277 11.0624C83.578 10.3755 84.3287 9.55335 85.3268 9.44638C87.5587 9.2076 90.2284 9.42192 93.2507 9.28791C93.534 9.27491 93.6103 9.72362 93.632 10.0152C93.7389 11.4508 93.9927 13.4013 93.632 14.3352C93.1086 15.6907 91.9245 17.2035 90.7224 18.6112C89.9 19.5737 89.0687 20.4256 88.4341 21.3904C87.6736 22.5471 88.8099 24.1245 88.4205 25.4625C88.0219 26.8312 86.9332 28.2861 86.0895 29.4205C85.3974 30.3512 84.38 30.8276 83.7313 31.7906C82.9212 32.9931 82.4494 34.1772 81.9379 35.5425C81.5126 36.6778 81.2384 37.8759 81.0481 39.0771C80.8979 40.0256 81.338 41.0979 80.921 41.9571C80.6155 42.5864 79.9262 42.4704 79.4816 43.0043C78.8652 43.7452 78.5042 44.695 78.2106 45.6225C77.8628 46.721 77.8342 47.3718 77.2914 48.3827C76.6823 49.5166 75.4598 50.6118 74.9057 51.7752C74.3013 53.0441 74.2321 54.5859 73.93 55.9643C73.6378 57.2974 73.3935 58.553 73.1262 59.8916C72.7988 61.5297 72.4571 63.1943 72.4906 64.8662C72.5007 65.375 73.0232 65.7252 73.2533 66.1752C73.4475 66.5553 73.8935 66.9459 73.7618 67.3534C73.5817 67.9102 72.5711 67.9505 72.4906 68.5317C72.4075 69.1317 72.5558 69.6857 72.9835 70.103C73.3555 70.4643 74.1148 70.3071 74.3818 70.7568C74.6691 71.2417 74.6175 71.9461 74.3818 72.4582C74.1858 72.8859 73.4976 72.7819 73.4079 73.2446C73.0424 75.128 73.491 76.4695 73.1673 78.3607V78.3607ZM183.375 96.9129C183.137 96.133 183.733 95.9809 184.129 95.574C184.708 94.9787 185.269 94.3977 185.498 93.2253C185.585 92.7807 186.027 92.0619 186.129 91.3497C186.279 90.3098 186.05 89.2258 185.775 88.5538C185.414 87.6738 184.822 87.215 185.036 86.3753C185.112 85.8385 186.291 85.7722 187.22 85.3472C187.707 85.1249 188.125 84.6895 188.28 84.28C188.483 83.7406 187.807 83.8329 187.462 83.1479C187.095 82.4187 187.041 81.3269 186.758 80.7836C186.264 79.8373 185.362 78.5673 185.329 77.4924C185.241 74.625 186.047 71.7304 186.151 68.9715C186.238 66.6581 186.769 66.1067 186.598 63.7363C186.513 62.5559 185.897 61.697 185.261 60.492C184.735 59.4932 184.043 58.5048 183.778 57.5627C183.307 55.8864 183.781 53.8992 183.495 52.179C183.44 51.8419 182.619 51.4294 182.589 51.0885C182.377 48.727 182.636 46.3088 182.488 43.9731C182.412 43.5336 182.067 43.4499 182.026 43.0056C181.906 41.6963 182.025 40.4212 182.021 39.2895C182.017 38.2907 181.884 37.4372 181.884 36.2766C181.884 35.8439 181.535 35.5476 181.521 35.1149C181.437 32.561 181.54 29.741 181.508 27.1829C181.472 24.4597 181.311 21.9981 181.521 19.2865C181.558 18.8293 182.455 18.8403 182.438 18.3823C182.354 16.3044 182.18 15.478 182.227 13.388C182.232 13.1469 182.712 12.5866 182.731 12.3461C182.871 10.6074 183.08 8.86691 182.65 7.37889C182.339 6.30109 181.554 5.96534 180.653 5.27007C179.858 4.65591 178.971 3.65756 178.235 3.09799C177.293 2.3814 176.666 1.80505 175.953 0.731929C175.524 0.0860538 176.232 0.0296502 177.022 0.00586374C178.037 -0.0246818 179.145 0.0665699 180.11 0.222287C180.437 0.274929 181.052 0.855028 181.361 0.97838C182.106 1.27578 182.593 0.889615 183.355 1.13463C183.937 1.32193 186.367 2.62642 187.02 3.01441C187.914 3.54447 188.203 4.31474 189.136 4.76499C189.303 4.84597 192.185 5.69536 192.519 5.78154C193.299 5.9821 193.784 5.39474 194.564 5.5953C195.47 5.82797 197.082 6.29809 198.099 6.61173C198.672 6.78825 199.034 7.48574 199.621 7.6061C202.467 8.19102 201.958 7.21396 204.212 9.53503C204.876 10.219 205.973 10.7683 206.468 11.5901C207.167 12.75 207.24 14.1716 207.684 15.4356C208.03 16.4184 208.803 17.2257 208.986 18.27C209.479 21.0803 208.964 24.0027 209.299 26.8377C209.401 27.7036 210.265 28.617 210.356 29.4845C210.701 32.8055 210.759 36.0848 210.366 39.4001C210.234 40.5175 209.32 40.9721 209.157 42.0852C208.886 43.9525 209.427 45.8648 209.299 47.7486C209.238 48.6507 208.751 49.5924 208.291 50.3624C207.956 50.9231 207.188 51.1252 206.942 51.7323C206.295 53.3258 206.458 55.5046 206.157 57.2313C206.064 60.5269 206.13 63.0836 206.267 66.3774C206.364 68.699 206.595 70.7828 206.307 73.0874C206.207 73.8854 205.558 74.3235 205.442 75.1203C205.121 77.3222 205.396 79.5838 205.189 81.8C205.154 82.1769 204.611 82.6137 204.534 82.9841C204.39 85.0092 204.253 87.965 203.396 90.2448C202.832 91.7487 201.46 93.2643 200.142 94.1351C198.866 94.9787 197.494 95.1607 196.024 95.5467C195.095 95.7898 194.055 95.6728 193.205 96.1264C192.695 96.3994 193.037 96.4034 192.571 96.7465C192.302 96.9428 191.838 96.9597 191.584 96.7465C191.226 96.4437 191.337 96.3201 190.919 96.116C190.282 95.8054 189.451 95.8301 188.804 96.116C188.337 96.3227 188.507 96.6984 188.007 96.7985C186.999 97.0012 185.818 97.2638 184.727 97.2339C184.075 97.217 183.56 97.5199 183.375 96.9129V96.9129ZM192.84 22.3401C194.256 22.2629 194.534 22.1837 195.794 22.8812C197.098 23.6012 197.371 24.0761 198.167 25.3771C198.578 25.7852 198.989 26.1936 199.399 26.6015C201.074 28.2663 201.864 30.616 202.548 32.8177C202.66 35.2081 203.159 39.3958 202 41.5648C201.422 42.6475 201.194 43.4832 201.095 44.4019C200.821 46.9724 200.113 46.571 199.393 48.5176C199.197 49.0456 199.24 49.7025 199.222 50.9558C199.159 55.4306 199.095 59.9061 199.032 64.3808C198.991 67.24 198.469 68.6042 197.347 71.2443C196.688 72.5064 196.342 73.32 196.342 74.7524C196.342 76.45 196.005 77.2325 195.35 78.7793C194.951 79.7203 194.551 80.6626 194.152 81.605C193.679 82.7215 193.245 83.1219 192.931 82.9724C192.616 82.8242 192.422 82.1236 192.427 81.0396C192.455 75.5765 192.483 70.1147 192.51 64.6516C192.571 58.8435 192.632 53.0355 192.692 47.2277C192.621 45.9804 192.667 45.704 191.872 44.7789C191.797 42.8988 191.445 42.0483 190.867 40.2582C190.138 38.8467 190.221 37.817 190.203 36.2034C190.158 32.1669 190.111 28.1297 190.066 24.0931C190.038 21.6161 190.582 22.4629 192.84 22.3401V22.3401ZM100.41 91.7877C99.9736 89.5911 100.279 87.8454 100.393 86.1933C100.447 85.7995 101.219 86.1673 101.429 85.8346C101.741 85.3368 102.024 84.6544 101.817 84.1007C101.693 83.7692 101.474 84.2267 101.289 83.9264C101.033 83.5131 101.123 82.845 101.418 82.4603C101.849 81.8975 102.711 82.0431 103.005 81.3932C103.407 80.5067 102.718 79.3914 103.005 78.4595C103.097 78.1631 103.84 78.7623 103.911 78.4595C104.247 77.0336 103.83 75.5102 104.041 74.0596C104.096 73.6814 104.42 73.5059 104.463 73.1264C104.642 71.5367 104.736 69.9015 104.463 68.3259C104.293 67.3478 103.526 66.6436 103.394 65.6592C102.913 62.089 102.768 58.2017 103.214 54.6266C103.56 51.8511 105.278 47.5591 106.287 44.9607C106.919 43.3352 107.228 43.8422 107.795 42.1915C107.969 41.6871 108.089 41.0992 107.925 40.5915C107.72 39.9591 106.996 39.4757 107.098 38.8174C107.223 38.0109 108.186 38.0311 108.443 37.258C108.792 36.207 108.089 34.9742 108.443 33.9246C108.859 32.6897 110.292 31.9804 110.644 30.7245C110.979 29.5261 110.62 27.6115 110.948 26.4107C111.598 24.0384 112.378 22.5061 113.492 20.3241C114.15 19.0357 115.292 17.9471 115.806 16.5905C116.301 15.2834 116.25 13.553 116.47 12.4571C115.661 11.4154 113.804 12.8693 112.586 12.4163C111.968 12.1866 111.97 11.1459 111.358 10.8978C110.048 10.806 108.795 10.7749 107.863 11.4954C106.611 12.4617 106.601 13.5944 106.112 15.1238C105.381 17.409 105.939 19.9764 105.026 22.1907C104.666 23.0664 103.194 23.3126 102.487 23.9242C102.113 24.2476 101.94 24.5847 101.451 24.5847C100.963 24.5847 100.538 24.4111 100.416 23.9242C100.168 22.9346 100.464 21.8785 100.416 20.8574C100.378 20.0536 99.9597 19.236 100.157 18.4573C100.26 18.0516 101.161 18.2088 101.193 17.7906C101.58 13.2093 101.048 8.6575 101.116 4.27975C101.139 2.74272 101.535 2.9706 103.005 2.95527C105.479 2.92901 109.401 2.94874 112.246 2.93392C117.236 2.90819 122.239 2.71635 127.215 2.85673C127.956 2.91197 128.92 3.1952 128.972 3.95793C129.077 5.50028 128.073 6.9875 127.379 8.35815C127.012 9.08254 126.192 9.55608 125.922 10.3236C125.462 11.6246 125.961 13.1661 125.476 14.4571C125.18 15.2493 123.671 15.3959 123.382 16.1906C122.972 17.3148 123.68 18.6734 123.252 19.7906C123.04 20.3454 121.892 20.0285 121.699 20.5907C121.047 22.4933 121.43 24.6424 120.923 26.591C120.641 27.6666 119.85 28.4207 119.707 29.5244C119.318 32.5202 119.96 35.5806 119.707 38.5915C119.652 39.2452 118.981 39.6962 118.8 40.3249C118.373 41.8034 118.104 43.4013 117.612 44.8584C117.4 45.4877 116.612 45.8141 116.447 46.4584C116.204 47.4037 116.813 48.49 116.447 49.3918C115.986 50.5258 114.364 50.9895 114.117 52.192C113.418 55.5857 114.524 59.164 114.01 62.5923C113.78 64.1266 112.467 65.332 112.197 66.8592C111.85 68.8268 112.448 71.1532 111.972 73.0912C111.513 74.963 110.195 76.5852 109.535 78.3906C109.38 80.1622 107.319 81.7883 108.443 83.1271C109.799 83.3117 112.048 83.5963 113.621 82.8593C114.346 82.5214 113.507 80.9564 114.139 80.4599C116.073 78.9391 118.291 78.3906 120.461 77.2598C121.701 76.6125 123.261 75.9951 124.368 75.1268C124.93 74.6849 124.994 73.6359 125.662 73.3928C126.064 73.2459 126.148 74.252 126.568 74.3261C128.014 74.5795 129.269 73.9426 130.688 74.3261C131.256 74.4795 131.239 75.2658 131.386 75.8507C131.519 76.3745 131.749 76.9387 131.466 77.3923C131.296 77.6653 130.678 77.3611 130.559 77.6601C130.312 78.2762 130.408 79.0119 130.559 79.6592C130.677 80.1636 131.125 80.4768 131.167 80.9928C131.389 83.6951 131.462 86.4325 131.167 89.127C131.105 89.6924 130.793 90.2851 130.244 90.3436C126.51 90.1668 123.058 90.4489 119.318 90.4606C118.933 90.4255 119.154 89.7236 118.8 89.5676C117.835 89.1413 116.097 89.0828 115.073 89.3246C113.883 89.6053 113.783 90.6139 112.586 90.8596C110.428 91.3041 107.934 90.8687 105.757 91.208C104.988 91.3275 104.401 91.9995 103.646 92.1932C102.6 92.4623 100.949 92.7496 100.41 91.7877V91.7877ZM42.7399 98.0502C41.1254 98.6338 39.2419 98.0515 37.5307 98.0892C37.0033 98.1009 36.1448 98.5272 35.6382 98.3738C35.0852 98.2074 34.2137 97.0779 34.5594 96.6022C35.91 94.7474 38.5725 94.516 39.8055 92.578C40.5307 91.438 39.8515 89.903 40.1631 88.5785C40.2587 88.1717 40.9509 88.2094 41.1556 87.848C41.3219 87.5542 41.3708 87.085 41.1556 86.8263C40.6639 86.2349 40.3525 87.475 40.1585 85.7046C39.9849 84.1215 39.9484 82.5135 40.091 80.9317C40.1806 79.9243 40.8917 80.1375 41.0261 79.6059C41.2764 78.6168 40.7556 77.8836 41.0135 76.8958C41.1291 76.4526 41.9268 76.5643 42.1478 76.1653C42.3585 75.7857 42.3834 75.2164 42.1478 74.8512C41.6648 74.1051 40.352 74.1168 40.2057 73.2329C39.9367 71.6069 40.0808 69.8612 40.1086 68.2479C40.1382 66.5297 40.0236 64.8065 40.1628 63.0558C40.1885 62.7311 40.9024 62.7449 41.0135 62.4396C41.2289 61.8474 41.0926 61.1686 41.0135 60.5412C40.9501 60.0379 41.1003 59.0082 41.0628 58.5021C41.0054 57.7244 40.6809 57.4356 41.0319 56.7446C41.2766 56.2631 42.0744 56.553 42.1478 56.0145C42.5357 53.1707 41.7077 50.2548 42.006 47.3991C42.0566 46.9153 42.7962 46.9923 42.9205 46.5229C43.1206 45.7658 43.1825 44.8955 42.8567 44.1865C42.7031 43.8518 41.9784 43.8505 41.9504 43.4812C41.632 39.3083 42.1861 35.3633 41.8642 31.1904C41.8341 30.7995 40.9021 31.3476 40.8848 29.6518C40.8657 27.8744 40.7067 26.2177 40.73 24.9112C40.7481 23.9088 42.848 23.8818 42.8258 22.8794C42.792 21.3518 43.0257 19.6279 42.684 18.0606C42.5742 17.5567 41.9358 17.64 41.7225 17.1719C41.5217 16.7323 41.7111 16.2939 41.8949 15.8453C42.1155 15.3055 42.715 14.9648 42.8567 14.3975C43.1162 13.361 43.0902 12.2285 42.8567 11.185C42.7803 10.8435 42.208 10.5099 42.049 10.2C41.7544 9.62654 41.8876 9.12037 41.4942 8.61345C41.2224 8.26367 40.4196 8.47855 40.0888 8.18778C39.2376 7.43909 38.7468 6.60666 38.0328 5.92478C37.3616 5.28436 36.457 4.80176 35.9399 3.85888C35.6076 3.25317 35.9947 2.20539 36.5317 1.78243C36.9441 1.45774 37.5902 1.53118 38.0483 1.78243C38.4208 1.98702 38.4134 2.80187 38.8312 2.86153C40.6587 3.1237 42.4725 2.29522 44.2745 2.7031C45.0601 2.88105 45.102 3.90296 45.8342 4.2452C46.324 4.47435 47.207 4.03137 47.6528 4.34151C48.3071 4.79683 48.8621 5.76555 49.3779 6.30653C50.0409 7.00206 50.6125 7.31168 50.9511 8.29655C51.3783 9.54008 51.1912 10.816 51.1724 12.1094C51.1558 13.2507 51.3362 14.4064 51.2344 15.5657C51.2004 15.9557 50.4731 15.7722 50.3714 16.1497C50.193 16.8126 50.3206 17.5547 50.655 18.1496C50.8982 18.5829 51.557 18.3623 51.7154 18.8352C52.085 19.9403 52.1321 21.2949 51.8572 22.4289C51.7549 22.8511 50.9637 22.579 50.9386 23.013C50.6202 28.5037 50.5407 34.042 51.0803 39.5137C51.1718 40.4438 52.5996 40.775 52.6955 41.7041C53.2307 46.8832 52.7435 52.1253 52.5354 57.3287C52.5061 58.0688 52.15 58.999 51.8572 59.5513C51.5295 60.1686 51.7332 60.7854 51.7455 61.4666C51.7615 62.3425 51.6598 63.2977 51.7893 64.1919C51.8632 64.7026 52.872 65.1887 52.8373 65.7039C52.7417 67.1234 52.9377 67.7944 53.022 69.194C53.0627 69.8677 51.8713 70.2889 51.4934 70.84C51.2216 71.2364 51.0562 72.0046 51.2777 72.4336C51.4866 72.8378 51.8618 72.6324 51.9806 73.0743C52.1486 73.6996 52.1627 74.2273 51.8572 74.7953C51.66 75.1606 50.9336 75.1125 50.8647 75.5245C50.6716 76.68 51.3087 77.8694 51.1482 79.0301C51.1003 79.3772 50.3478 79.2666 50.2975 79.6137C50.0454 81.3463 50.5827 83.1427 50.2975 84.8701C50.1898 85.5226 49.2085 85.8164 49.1632 86.4767C49.1377 86.8459 49.9864 86.5885 50.1557 86.9147C50.4233 87.432 49.7516 88.5031 50.2975 88.6669C52.1116 89.2141 54.3566 89.0724 56.1847 88.5785C57.2201 88.2978 57.6583 86.8029 58.7245 86.6989C60.0089 86.5741 60.9566 87.4477 62.2262 87.6816C63.9001 87.9923 65.7312 88.0481 67.3735 87.5932C68.3426 87.3241 68.9056 86.2648 69.901 86.1284C74.2099 85.5317 78.2087 85.8983 82.5564 85.8749C86.6674 85.8515 91.9267 85.6383 94.9786 85.9814C96.7193 86.0412 94.8318 92.383 95.4595 95.7326C95.596 96.4618 96.201 96.8699 96.5645 97.5445C97.1443 98.6208 97.369 99.168 95.8636 99.1615C93.0319 99.1472 90.1665 99.3721 87.0941 99.2382C86.4905 99.2122 86.5196 98.0138 85.9598 97.7772C85.3463 97.5186 84.6191 98.0839 83.9748 97.9241C83.0093 97.6836 81.9211 96.7309 80.9357 96.61C78.308 96.285 75.66 96.9636 73.0389 96.5905C72.444 96.506 72.362 95.3206 71.7629 95.2751C65.6356 94.8137 59.7645 95.4766 53.6311 95.1321C52.3173 95.0581 52.1975 94.5862 51.3637 94.3367C50.1837 93.9857 48.0737 93.8453 46.9623 94.3821C44.891 95.3804 44.8975 97.269 42.7396 98.0502H42.7399ZM116.499 73.3772C115.219 73.3382 115.134 71.2208 115.235 69.9223C115.339 68.5939 117.024 68.6636 117.625 67.4838C118.063 66.6247 117.406 65.1144 117.906 64.2915C118.444 63.4053 119.902 63.4382 120.439 62.5521C120.747 62.0457 120.288 61.0744 120.302 60.4773C120.336 59.0635 120.644 58.0219 120.581 56.6094C120.548 55.8747 120.251 54.5476 120.386 53.8252C120.572 52.8387 121.142 53.0781 121.425 52.1161C121.777 50.9129 121.191 49.5438 121.565 48.3476C121.714 47.8745 122.918 48.1119 122.832 47.6228C122.727 47.0276 121.673 47.348 121.569 46.7531C121.249 44.9417 121.232 42.8102 121.706 41.0355C122.003 39.9253 123.226 39.0759 123.536 37.969C123.861 36.8092 123.174 35.4939 123.536 34.3454C123.781 33.5656 125.032 33.4009 125.225 32.6061C125.679 30.7309 125.274 28.4307 125.747 26.5607C125.996 25.5793 126.493 24.467 127.103 23.8519C127.469 23.4826 127.798 23.2143 127.97 22.6324C128.205 21.8354 127.628 21.1651 127.76 20.3432C127.878 19.6161 128.417 19.1493 128.759 18.5027C129.192 17.6861 129.372 16.6516 129.787 15.8265C130.393 14.6201 131.208 13.6109 131.643 12.3275C131.967 11.3706 131.27 9.80978 131.686 8.89017C132.274 7.58802 133.793 7.62012 134.373 6.31356C134.841 5.25811 134.022 3.87862 134.514 2.83488C134.871 2.07449 135.678 1.73877 136.497 1.70524C137.097 1.68067 137.827 2.1088 138.031 2.68981C138.434 3.82832 138.07 5.19637 138.526 6.31356C139.325 8.27822 140.711 9.43622 141.479 11.4141C141.879 12.4454 141.447 13.9284 141.691 15.0102C142.025 16.4809 142.258 17.9642 142.73 19.3964C143.316 21.18 144.155 22.9101 144.647 24.7215C145.083 26.3257 145.187 28.0663 145.523 29.6991C145.769 30.8905 146.218 31.9844 146.617 33.1284C146.788 33.6196 147.364 33.4949 147.502 33.9979C147.743 34.8866 147.019 35.8529 147.221 36.752C147.46 37.8263 148.584 38.9149 148.768 40.0007C149.068 41.7613 148.755 43.4454 148.797 45.2325C148.835 46.8657 149.003 48.3824 149.211 49.9482C149.34 50.9117 149.857 52.2856 149.881 52.9858C149.968 55.5945 150.08 58.1628 150.108 60.7746C150.151 64.5914 150.151 68.6719 149.966 72.4816C149.944 72.9262 149.429 73.1537 149.278 73.5709C148.703 75.1502 148.223 76.0236 147.854 77.6679C147.66 78.5348 147.653 79.4681 147.291 80.2766C147.069 80.7731 146.078 81.18 145.91 81.6986C145.538 82.8528 145.995 84.0135 145.913 85.4537C145.844 86.6937 145.345 87.4061 144.844 88.559C144.501 89.3467 143.943 90.575 143.731 91.3965C143.5 92.2881 143.915 93.2656 143.661 94.1508C143.528 94.6135 142.914 94.837 142.817 95.3102C142.574 96.4917 143.028 97.7811 142.676 98.9327C142.478 99.5852 142.34 99.4904 141.736 99.7711C141.306 99.9687 140.181 100.194 140.116 99.7126C139.844 97.6953 140.395 96.2941 140.085 94.2807C139.721 91.9255 138.765 90.4931 138.188 88.182C137.908 87.0603 138.409 85.0326 137.891 84.0044C136.96 82.1522 133.978 81.4035 134.108 79.3225C134.232 77.3091 135.401 75.9989 136.591 74.3611C137.404 73.2394 137.933 71.408 138.439 70.1303C138.811 69.188 139.028 68.0844 139.045 67.155C139.07 65.7678 138.705 65.1641 137.685 64.3014C135.555 62.4985 132.112 60.8498 129.461 59.522C129.072 59.3274 128.616 60.0913 128.616 60.5366C128.616 60.9821 129.122 61.3284 129.173 61.77C129.32 63.0689 128.557 64.4164 129.103 65.596C129.68 66.8424 131.956 67.2052 131.619 68.541C131.391 69.4356 131.178 69.7507 130.441 70.1875C129.994 70.4526 129.498 70.4345 128.976 70.4592C127.408 70.5333 125.797 69.9613 124.282 70.2915C122.638 70.6502 121.166 71.4327 119.647 72.2126C118.641 72.7299 117.612 73.4123 116.499 73.3772V73.3772ZM130.362 53.1129C130.348 51.8343 130.317 50.576 130.32 49.3184C130.323 48.208 130.349 47.0978 130.434 45.9741C130.489 45.244 131.138 44.6869 131.221 43.9601C131.361 42.7581 130.644 41.3157 130.971 40.16C131.102 39.6909 132.257 40.1613 132.519 39.7669C132.604 39.6377 132.78 38.8853 133.071 38.2438C133.247 37.8589 133.611 37.5134 133.611 37.366C133.611 37.1512 133.598 35.6253 133.754 34.3033C133.845 33.5359 133.96 32.8878 134.073 32.8827C134.186 32.8775 134.299 33.5137 134.694 34.043C135.149 34.652 135.303 35.256 135.7 35.9001C135.935 36.2801 136.187 36.7277 136.575 36.8826C137.068 37.0802 137.659 36.8022 138.15 37.0062C138.517 37.1587 138.607 37.7523 138.937 37.9887C139.161 38.1487 139.673 37.8441 139.725 38.1361C139.959 39.4522 139.757 41.2134 139.96 42.5355C140.009 42.8524 140.689 42.705 140.704 43.0267C140.808 45.329 140.86 47.635 140.852 49.9411C140.846 51.976 140.794 54.0115 140.692 56.0448C140.664 56.6242 139.177 56.6648 138.762 56.3395C137.959 55.7096 137.451 54.9785 136.401 54.7183C135.963 54.6102 135.984 53.8959 135.569 53.7535C134.648 53.4374 133.485 53.3586 132.522 53.3586C131.894 53.3586 130.986 53.5871 130.362 53.5058C130.247 53.491 130.363 53.2431 130.362 53.1129V53.1129ZM160.25 13.4294C160.253 14.754 160.39 16.1893 160.394 17.5763C160.4 19.3613 160.274 20.9605 160.281 22.7598C160.287 24.6758 160.426 26.7923 160.426 28.6661C160.426 30.1892 160.156 33.1169 160.271 34.382C160.417 36.0086 160.504 36.2904 162.663 36.2904C163.708 36.2904 165.124 35.1865 166.168 34.0709C166.883 33.3072 166.775 31.989 167.049 31.4187C167.453 30.5806 168.143 29.814 168.287 28.8409C168.472 27.5893 168.027 26.5561 168.838 25.7556C169.157 25.439 169.458 21.8453 169.458 21.0545C169.458 19.9273 168.309 18.2557 166.987 16.7601C166.084 15.7368 165 14.8184 164.538 14.1174C163.691 12.8339 163.057 12.2709 162.054 12.04C160.221 11.6185 160.249 11.7918 160.25 13.4294V13.4294ZM150.575 83.9655C150.233 85.3563 151.273 85.9242 152.504 86.7431C153.732 87.562 155.153 88.633 156.491 89.7626C158.755 91.6733 160.296 95.1607 161.769 98.5948C162.527 97.7643 161.992 93.8934 162.417 91.5746C162.508 91.078 163.028 90.7192 163.077 90.2162C163.252 88.4134 163.294 86.5794 163.077 84.7817C162.995 84.111 162.366 83.621 162.198 82.9698C162.065 82.459 162.097 81.9014 162.198 81.384C162.32 80.7523 162.801 80.2142 162.856 79.5721C163.023 77.6926 163.132 75.7766 162.856 73.9114C162.753 73.2069 161.705 72.8092 161.757 72.0995C161.801 71.512 163.034 71.5549 163.077 70.9674C163.197 69.2839 162.631 67.6593 162.429 65.985C161.972 62.221 161.705 58.4349 161.328 54.6619C161.193 53.3022 160.666 51.9331 160.889 50.5857C161.577 48.7478 162.205 46.8598 162.868 45.3771C163.191 44.9401 163.618 45.7938 163.946 46.2266C165.017 47.6358 166.441 49.3798 166.749 51.1409C167.126 53.3002 165.99 55.2107 166.233 57.3909C166.303 58.027 167.255 57.9129 167.474 58.5118C168.524 61.3732 169.378 64.3314 169.894 67.3437C170.482 70.7763 170.671 74.2767 170.774 77.7615C170.818 79.2771 170.755 80.8368 170.333 82.29C169.732 84.3658 168.48 86.0204 167.859 88.026C167.209 90.1239 167 90.7505 169.156 90.7492C170.009 90.7479 171.004 90.783 171.663 91.1222C173.428 92.0308 174.156 94.126 175.831 95.1984C176.193 95.4297 176.666 95.7508 177.165 96.0381C179.54 97.4081 179.801 96.4618 180.296 94.3198C180.948 91.4875 181.114 88.9333 181.537 86.14C181.752 84.7232 181.707 83.2701 181.768 81.8377C181.853 79.7957 182.002 77.764 181.9 75.722C181.853 74.7693 181.858 73.7269 181.251 73.0055C180.796 72.4635 179.452 73.0172 179.272 72.3257C179.026 71.3781 180.354 70.5891 180.372 69.6078C180.008 66.9602 179.675 64.5909 179.632 61.9813C179.583 58.9048 178.943 60.4533 177.952 59.2475C177.354 58.5188 177.167 57.8763 177.074 56.9266C176.797 54.1469 177.189 51.0711 176.776 48.3097C176.592 47.0749 176.031 45.857 175.238 44.9128C174.95 44.5706 174.422 45.0797 174.225 44.6748C173.896 43.9964 174.908 43.532 174.522 42.886C173.625 41.3853 171.747 40.2398 170.323 39.2627C169.896 38.9698 169.145 39.6363 168.783 39.2627C168.421 38.8891 168.43 37.7423 168.783 37.3603C171.319 36.9822 172.624 35.7527 173.862 34.2806C175.542 32.285 176.363 30.0604 177.205 27.5662C177.594 26.4166 177.097 25.0729 177.227 23.8635C177.468 21.6253 178.607 19.5928 178.227 17.3752C177.676 14.1503 176.132 11.2603 174.358 8.54328C173.372 7.03498 171.841 5.69813 170.246 4.91993C168.914 4.27055 167.8 4.81387 166.387 4.38792C164.75 3.89477 163.438 2.95176 161.769 2.59925C160.469 2.32473 159.104 2.88339 157.811 2.57625C157.003 2.3844 156.872 1.44928 156.051 1.31956C155.486 1.22987 154.908 2.07372 154.337 2.12337C150.393 2.46743 147.156 1.68066 143.231 2.21397C142.645 2.29365 142.812 2.9663 143.298 3.31231C144.024 3.8295 145.127 3.57408 145.937 3.93504C147.391 4.58391 148.509 5.45621 149.587 6.65255C150.479 7.64196 150.843 8.74251 151.653 10.2759C151.986 10.9045 152.944 9.69747 153.633 9.59648C154.503 9.46858 155.107 9.44453 155.656 10.1515C156.15 10.7857 155.129 11.6308 154.547 12.1779C153.369 13.2833 152.568 13.8687 151.527 14.6026C150.815 15.1049 149.554 15.556 149.025 16.5373C147.852 18.7145 149.244 21.1905 149.696 23.637C149.861 24.5293 150.05 25.4017 150.247 26.2867C150.886 29.1643 150.671 31.5594 151.06 34.4841C151.186 35.4294 151.837 36.2531 151.939 37.2016C152.061 38.329 151.864 39.1596 152.028 40.2813C152.096 40.7589 152.476 41.2652 152.6 41.7308C153.147 43.8016 153.629 46.4026 153.699 48.5476C153.923 55.5643 153.52 62.4383 153.863 69.4505C153.894 70.0887 154.825 70.3409 154.952 70.9674C155.15 71.9383 154.522 73.0536 154.205 73.9907C152.904 77.8278 151.378 80.6991 150.575 83.9655V83.9655Z" fill="white"/>
</svg>
